<mxfile host="Electron" agent="Mozilla/5.0 (Macintosh; Intel Mac OS X 10_15_7) AppleWebKit/537.36 (KHTML, like Gecko) draw.io/26.2.2 Chrome/134.0.6998.178 Electron/35.1.2 Safari/537.36" version="26.2.2" pages="3">
  <diagram name="Analyse" id="Am9qpI-oXll2Q0xjM_AP">
    <mxGraphModel dx="1108" dy="722" grid="1" gridSize="10" guides="1" tooltips="1" connect="1" arrows="1" fold="1" page="1" pageScale="1" pageWidth="1169" pageHeight="827" math="0" shadow="0">
      <root>
        <mxCell id="0" />
        <mxCell id="1" parent="0" />
        <mxCell id="zZ_Kt5lL75JRNZ_FaKLi-1" value="Analyse technique LeoZan Project" style="text;html=1;align=center;verticalAlign=middle;whiteSpace=wrap;rounded=0;fontStyle=1;fontSize=17;" vertex="1" parent="1">
          <mxGeometry x="260" y="30" width="340" height="30" as="geometry" />
        </mxCell>
        <mxCell id="ICg226S9aOwBq3nq47B0-1" value="&lt;h1 style=&quot;margin-top: 0px;&quot;&gt;Solutions eCRF analysées&lt;/h1&gt;&lt;p&gt;&lt;b&gt;RedCap : &lt;/b&gt;répandu. Contraintes d&#39;installation et d&#39;exploitation. Besoin de support et d&#39;encapsulation administrative&lt;/p&gt;&lt;p&gt;&lt;br&gt;&lt;/p&gt;&lt;p&gt;&lt;b&gt;OpenClinica : &lt;/b&gt;Technologie ancienne. Maintenabilité à évaluer. Version sous licence privée.&lt;/p&gt;" style="text;html=1;whiteSpace=wrap;overflow=hidden;rounded=0;" vertex="1" parent="1">
          <mxGeometry x="40" y="120" width="380" height="190" as="geometry" />
        </mxCell>
      </root>
    </mxGraphModel>
  </diagram>
  <diagram id="ZmvPp64BpvnXe0AQnj4W" name="Architecture technique">
    <mxGraphModel dx="1108" dy="722" grid="1" gridSize="10" guides="1" tooltips="1" connect="1" arrows="1" fold="1" page="1" pageScale="1" pageWidth="1169" pageHeight="827" math="0" shadow="0">
      <root>
        <mxCell id="0" />
        <mxCell id="1" parent="0" />
        <mxCell id="HiYMy-C9IRaBCVT_9r5U-2" value="Ubuntu Server" style="rounded=1;whiteSpace=wrap;html=1;verticalAlign=top;fontSize=14;fontStyle=1" vertex="1" parent="1">
          <mxGeometry x="100" y="120" width="740" height="240" as="geometry" />
        </mxCell>
        <mxCell id="4q8tbF9PHJA7iAzdVTUW-8" value="Tomcat Server" style="rounded=1;whiteSpace=wrap;html=1;verticalAlign=top;fontSize=14;fontStyle=1;fillColor=#fff2cc;strokeColor=#d6b656;" vertex="1" parent="1">
          <mxGeometry x="120" y="150" width="430" height="190" as="geometry" />
        </mxCell>
        <mxCell id="9ZYzbSqjlg4ECAPjDiOu-1" value="Architecture technique LeoZan Project" style="text;html=1;align=center;verticalAlign=middle;whiteSpace=wrap;rounded=0;fontStyle=1;fontSize=17;" vertex="1" parent="1">
          <mxGeometry x="260" y="30" width="340" height="30" as="geometry" />
        </mxCell>
        <mxCell id="4q8tbF9PHJA7iAzdVTUW-3" style="edgeStyle=orthogonalEdgeStyle;rounded=0;orthogonalLoop=1;jettySize=auto;html=1;" edge="1" parent="1" source="4q8tbF9PHJA7iAzdVTUW-1" target="4q8tbF9PHJA7iAzdVTUW-2">
          <mxGeometry relative="1" as="geometry" />
        </mxCell>
        <mxCell id="4q8tbF9PHJA7iAzdVTUW-4" value="REST/JSON" style="edgeLabel;html=1;align=center;verticalAlign=middle;resizable=0;points=[];" vertex="1" connectable="0" parent="4q8tbF9PHJA7iAzdVTUW-3">
          <mxGeometry x="-0.3172" y="1" relative="1" as="geometry">
            <mxPoint as="offset" />
          </mxGeometry>
        </mxCell>
        <mxCell id="4q8tbF9PHJA7iAzdVTUW-1" value="Front-End&lt;div&gt;[React JS]&lt;/div&gt;" style="rounded=1;whiteSpace=wrap;html=1;fillColor=#dae8fc;strokeColor=#6c8ebf;fontStyle=1;fontSize=15;" vertex="1" parent="1">
          <mxGeometry x="130" y="220" width="120" height="60" as="geometry" />
        </mxCell>
        <mxCell id="4q8tbF9PHJA7iAzdVTUW-2" value="Back-End&lt;br&gt;[Spring Boot]" style="rounded=1;whiteSpace=wrap;html=1;fillColor=#e1d5e7;strokeColor=#9673a6;verticalAlign=top;fontStyle=1;fontSize=15;opacity=60;" vertex="1" parent="1">
          <mxGeometry x="360" y="220" width="180" height="60" as="geometry" />
        </mxCell>
        <mxCell id="4q8tbF9PHJA7iAzdVTUW-5" value="DB PostgreSQL" style="shape=cylinder3;whiteSpace=wrap;html=1;boundedLbl=1;backgroundOutline=1;size=15;fillColor=#f8cecc;strokeColor=#b85450;fontStyle=1;fontSize=15;" vertex="1" parent="1">
          <mxGeometry x="630" y="210" width="140" height="80" as="geometry" />
        </mxCell>
        <mxCell id="4q8tbF9PHJA7iAzdVTUW-6" style="edgeStyle=orthogonalEdgeStyle;rounded=0;orthogonalLoop=1;jettySize=auto;html=1;entryX=0;entryY=0.5;entryDx=0;entryDy=0;entryPerimeter=0;" edge="1" parent="1" source="4q8tbF9PHJA7iAzdVTUW-2" target="4q8tbF9PHJA7iAzdVTUW-5">
          <mxGeometry relative="1" as="geometry" />
        </mxCell>
        <mxCell id="4q8tbF9PHJA7iAzdVTUW-7" value="SQL" style="edgeLabel;html=1;align=center;verticalAlign=middle;resizable=0;points=[];" vertex="1" connectable="0" parent="4q8tbF9PHJA7iAzdVTUW-6">
          <mxGeometry x="-0.2333" y="-1" relative="1" as="geometry">
            <mxPoint as="offset" />
          </mxGeometry>
        </mxCell>
        <mxCell id="HiYMy-C9IRaBCVT_9r5U-3" value="&lt;h1 style=&quot;margin-top: 0px;&quot;&gt;Technologies&lt;/h1&gt;&lt;p&gt;Front-End : ReactJS . Framework JS le plus répandu, robuste et évolutif&lt;br&gt;Back-End : Java + SpringBoot. Framework standard de l&#39;écosystème Java. Robuste et pérenne.&lt;/p&gt;&lt;p&gt;Base de données : PostgreSQL, open source et pérenne.&lt;/p&gt;" style="text;html=1;whiteSpace=wrap;overflow=hidden;rounded=0;fontSize=15;" vertex="1" parent="1">
          <mxGeometry x="170" y="440" width="880" height="300" as="geometry" />
        </mxCell>
      </root>
    </mxGraphModel>
  </diagram>
  <diagram id="8xGH_tHqdR177DT1t5sk" name="Modèle de données">
    <mxGraphModel dx="1108" dy="722" grid="1" gridSize="10" guides="1" tooltips="1" connect="1" arrows="1" fold="1" page="1" pageScale="1" pageWidth="1169" pageHeight="827" math="0" shadow="0">
      <root>
        <mxCell id="0" />
        <mxCell id="1" parent="0" />
        <mxCell id="PCpBJ8rn8Khq6dN7b7X3-1" value="Modèle de données LeoZan Project" style="text;html=1;align=center;verticalAlign=middle;whiteSpace=wrap;rounded=0;fontStyle=1;fontSize=17;" vertex="1" parent="1">
          <mxGeometry x="260" y="30" width="340" height="30" as="geometry" />
        </mxCell>
        <mxCell id="PCpBJ8rn8Khq6dN7b7X3-24" style="edgeStyle=orthogonalEdgeStyle;rounded=0;orthogonalLoop=1;jettySize=auto;html=1;entryX=0;entryY=0.5;entryDx=0;entryDy=0;" edge="1" parent="1" source="PCpBJ8rn8Khq6dN7b7X3-2" target="PCpBJ8rn8Khq6dN7b7X3-25">
          <mxGeometry relative="1" as="geometry">
            <mxPoint x="580" y="370" as="targetPoint" />
          </mxGeometry>
        </mxCell>
        <mxCell id="PCpBJ8rn8Khq6dN7b7X3-2" value="Patient" style="swimlane;html=1;fontStyle=1;align=center;verticalAlign=top;childLayout=stackLayout;horizontal=1;startSize=26;horizontalStack=0;resizeParent=1;resizeLast=0;collapsible=1;marginBottom=0;swimlaneFillColor=#ffffff;rounded=1;shadow=0;comic=0;labelBackgroundColor=none;strokeWidth=1;fillColor=#dae8fc;fontFamily=Verdana;fontSize=12;strokeColor=#6c8ebf;" vertex="1" parent="1">
          <mxGeometry x="360" y="420" width="160" height="234" as="geometry" />
        </mxCell>
        <mxCell id="PCpBJ8rn8Khq6dN7b7X3-3" value="+ mrn:&amp;nbsp;" style="text;html=1;strokeColor=none;fillColor=none;align=left;verticalAlign=top;spacingLeft=4;spacingRight=4;whiteSpace=wrap;overflow=hidden;rotatable=0;points=[[0,0.5],[1,0.5]];portConstraint=eastwest;" vertex="1" parent="PCpBJ8rn8Khq6dN7b7X3-2">
          <mxGeometry y="26" width="160" height="26" as="geometry" />
        </mxCell>
        <mxCell id="PCpBJ8rn8Khq6dN7b7X3-4" value="+ name: varchar(200)" style="text;html=1;strokeColor=none;fillColor=none;align=left;verticalAlign=top;spacingLeft=4;spacingRight=4;whiteSpace=wrap;overflow=hidden;rotatable=0;points=[[0,0.5],[1,0.5]];portConstraint=eastwest;" vertex="1" parent="PCpBJ8rn8Khq6dN7b7X3-2">
          <mxGeometry y="52" width="160" height="26" as="geometry" />
        </mxCell>
        <mxCell id="PCpBJ8rn8Khq6dN7b7X3-5" value="+ first_name: varchar(200)" style="text;html=1;strokeColor=none;fillColor=none;align=left;verticalAlign=top;spacingLeft=4;spacingRight=4;whiteSpace=wrap;overflow=hidden;rotatable=0;points=[[0,0.5],[1,0.5]];portConstraint=eastwest;" vertex="1" parent="PCpBJ8rn8Khq6dN7b7X3-2">
          <mxGeometry y="78" width="160" height="26" as="geometry" />
        </mxCell>
        <mxCell id="PCpBJ8rn8Khq6dN7b7X3-6" value="+ birthdate : date" style="text;html=1;strokeColor=none;fillColor=none;align=left;verticalAlign=top;spacingLeft=4;spacingRight=4;whiteSpace=wrap;overflow=hidden;rotatable=0;points=[[0,0.5],[1,0.5]];portConstraint=eastwest;" vertex="1" parent="PCpBJ8rn8Khq6dN7b7X3-2">
          <mxGeometry y="104" width="160" height="26" as="geometry" />
        </mxCell>
        <mxCell id="PCpBJ8rn8Khq6dN7b7X3-7" value="+ creation_date: date" style="text;html=1;strokeColor=none;fillColor=none;align=left;verticalAlign=top;spacingLeft=4;spacingRight=4;whiteSpace=wrap;overflow=hidden;rotatable=0;points=[[0,0.5],[1,0.5]];portConstraint=eastwest;" vertex="1" parent="PCpBJ8rn8Khq6dN7b7X3-2">
          <mxGeometry y="130" width="160" height="26" as="geometry" />
        </mxCell>
        <mxCell id="PCpBJ8rn8Khq6dN7b7X3-8" value="+ ssn: varchar&amp;nbsp;" style="text;html=1;strokeColor=none;fillColor=none;align=left;verticalAlign=top;spacingLeft=4;spacingRight=4;whiteSpace=wrap;overflow=hidden;rotatable=0;points=[[0,0.5],[1,0.5]];portConstraint=eastwest;" vertex="1" parent="PCpBJ8rn8Khq6dN7b7X3-2">
          <mxGeometry y="156" width="160" height="26" as="geometry" />
        </mxCell>
        <mxCell id="PCpBJ8rn8Khq6dN7b7X3-9" value="+ uuid: varchar" style="text;html=1;strokeColor=none;fillColor=none;align=left;verticalAlign=top;spacingLeft=4;spacingRight=4;whiteSpace=wrap;overflow=hidden;rotatable=0;points=[[0,0.5],[1,0.5]];portConstraint=eastwest;" vertex="1" parent="PCpBJ8rn8Khq6dN7b7X3-2">
          <mxGeometry y="182" width="160" height="26" as="geometry" />
        </mxCell>
        <mxCell id="PCpBJ8rn8Khq6dN7b7X3-22" style="edgeStyle=orthogonalEdgeStyle;rounded=0;orthogonalLoop=1;jettySize=auto;html=1;entryX=0;entryY=0.5;entryDx=0;entryDy=0;" edge="1" parent="1" source="PCpBJ8rn8Khq6dN7b7X3-10" target="PCpBJ8rn8Khq6dN7b7X3-18">
          <mxGeometry relative="1" as="geometry" />
        </mxCell>
        <mxCell id="PCpBJ8rn8Khq6dN7b7X3-23" value="0-n" style="edgeLabel;html=1;align=center;verticalAlign=middle;resizable=0;points=[];" vertex="1" connectable="0" parent="PCpBJ8rn8Khq6dN7b7X3-22">
          <mxGeometry x="-0.7077" y="2" relative="1" as="geometry">
            <mxPoint as="offset" />
          </mxGeometry>
        </mxCell>
        <mxCell id="PCpBJ8rn8Khq6dN7b7X3-10" value="Project" style="swimlane;html=1;fontStyle=1;align=center;verticalAlign=top;childLayout=stackLayout;horizontal=1;startSize=26;horizontalStack=0;resizeParent=1;resizeLast=0;collapsible=1;marginBottom=0;swimlaneFillColor=#ffffff;rounded=1;shadow=0;comic=0;labelBackgroundColor=none;strokeWidth=1;fillColor=#e1d5e7;fontFamily=Verdana;fontSize=12;strokeColor=#9673a6;" vertex="1" parent="1">
          <mxGeometry x="370" y="120" width="160" height="234" as="geometry" />
        </mxCell>
        <mxCell id="PCpBJ8rn8Khq6dN7b7X3-12" value="+ name: varchar(200)" style="text;html=1;strokeColor=none;fillColor=none;align=left;verticalAlign=top;spacingLeft=4;spacingRight=4;whiteSpace=wrap;overflow=hidden;rotatable=0;points=[[0,0.5],[1,0.5]];portConstraint=eastwest;" vertex="1" parent="PCpBJ8rn8Khq6dN7b7X3-10">
          <mxGeometry y="26" width="160" height="26" as="geometry" />
        </mxCell>
        <mxCell id="PCpBJ8rn8Khq6dN7b7X3-13" value="+ description: text" style="text;html=1;strokeColor=none;fillColor=none;align=left;verticalAlign=top;spacingLeft=4;spacingRight=4;whiteSpace=wrap;overflow=hidden;rotatable=0;points=[[0,0.5],[1,0.5]];portConstraint=eastwest;" vertex="1" parent="PCpBJ8rn8Khq6dN7b7X3-10">
          <mxGeometry y="52" width="160" height="26" as="geometry" />
        </mxCell>
        <mxCell id="PCpBJ8rn8Khq6dN7b7X3-15" value="+ creation_date: date" style="text;html=1;strokeColor=none;fillColor=none;align=left;verticalAlign=top;spacingLeft=4;spacingRight=4;whiteSpace=wrap;overflow=hidden;rotatable=0;points=[[0,0.5],[1,0.5]];portConstraint=eastwest;" vertex="1" parent="PCpBJ8rn8Khq6dN7b7X3-10">
          <mxGeometry y="78" width="160" height="26" as="geometry" />
        </mxCell>
        <mxCell id="PCpBJ8rn8Khq6dN7b7X3-33" style="edgeStyle=orthogonalEdgeStyle;rounded=0;orthogonalLoop=1;jettySize=auto;html=1;entryX=0;entryY=0.5;entryDx=0;entryDy=0;" edge="1" parent="1" source="PCpBJ8rn8Khq6dN7b7X3-18" target="PCpBJ8rn8Khq6dN7b7X3-29">
          <mxGeometry relative="1" as="geometry" />
        </mxCell>
        <mxCell id="PCpBJ8rn8Khq6dN7b7X3-34" value="0-n" style="edgeLabel;html=1;align=center;verticalAlign=middle;resizable=0;points=[];" vertex="1" connectable="0" parent="PCpBJ8rn8Khq6dN7b7X3-33">
          <mxGeometry x="-0.52" relative="1" as="geometry">
            <mxPoint as="offset" />
          </mxGeometry>
        </mxCell>
        <mxCell id="PCpBJ8rn8Khq6dN7b7X3-43" style="edgeStyle=orthogonalEdgeStyle;rounded=0;orthogonalLoop=1;jettySize=auto;html=1;entryX=0.5;entryY=0;entryDx=0;entryDy=0;" edge="1" parent="1" source="PCpBJ8rn8Khq6dN7b7X3-18" target="PCpBJ8rn8Khq6dN7b7X3-25">
          <mxGeometry relative="1" as="geometry" />
        </mxCell>
        <mxCell id="PCpBJ8rn8Khq6dN7b7X3-44" value="0-n" style="edgeLabel;html=1;align=center;verticalAlign=middle;resizable=0;points=[];" vertex="1" connectable="0" parent="PCpBJ8rn8Khq6dN7b7X3-43">
          <mxGeometry x="-0.4545" y="2" relative="1" as="geometry">
            <mxPoint as="offset" />
          </mxGeometry>
        </mxCell>
        <mxCell id="PCpBJ8rn8Khq6dN7b7X3-18" value="Survey" style="swimlane;html=1;fontStyle=1;align=center;verticalAlign=top;childLayout=stackLayout;horizontal=1;startSize=26;horizontalStack=0;resizeParent=1;resizeLast=0;collapsible=1;marginBottom=0;swimlaneFillColor=#ffffff;rounded=1;shadow=0;comic=0;labelBackgroundColor=none;strokeWidth=1;fillColor=#ffe6cc;fontFamily=Verdana;fontSize=12;strokeColor=#d79b00;" vertex="1" parent="1">
          <mxGeometry x="660" y="120" width="160" height="234" as="geometry" />
        </mxCell>
        <mxCell id="PCpBJ8rn8Khq6dN7b7X3-19" value="+ name: varchar(200)" style="text;html=1;strokeColor=none;fillColor=none;align=left;verticalAlign=top;spacingLeft=4;spacingRight=4;whiteSpace=wrap;overflow=hidden;rotatable=0;points=[[0,0.5],[1,0.5]];portConstraint=eastwest;" vertex="1" parent="PCpBJ8rn8Khq6dN7b7X3-18">
          <mxGeometry y="26" width="160" height="26" as="geometry" />
        </mxCell>
        <mxCell id="PCpBJ8rn8Khq6dN7b7X3-20" value="+ description: text" style="text;html=1;strokeColor=none;fillColor=none;align=left;verticalAlign=top;spacingLeft=4;spacingRight=4;whiteSpace=wrap;overflow=hidden;rotatable=0;points=[[0,0.5],[1,0.5]];portConstraint=eastwest;" vertex="1" parent="PCpBJ8rn8Khq6dN7b7X3-18">
          <mxGeometry y="52" width="160" height="26" as="geometry" />
        </mxCell>
        <mxCell id="PCpBJ8rn8Khq6dN7b7X3-21" value="+ creation_date: date" style="text;html=1;strokeColor=none;fillColor=none;align=left;verticalAlign=top;spacingLeft=4;spacingRight=4;whiteSpace=wrap;overflow=hidden;rotatable=0;points=[[0,0.5],[1,0.5]];portConstraint=eastwest;" vertex="1" parent="PCpBJ8rn8Khq6dN7b7X3-18">
          <mxGeometry y="78" width="160" height="26" as="geometry" />
        </mxCell>
        <mxCell id="PCpBJ8rn8Khq6dN7b7X3-54" value="+ project_id : int" style="text;html=1;strokeColor=none;fillColor=none;align=left;verticalAlign=top;spacingLeft=4;spacingRight=4;whiteSpace=wrap;overflow=hidden;rotatable=0;points=[[0,0.5],[1,0.5]];portConstraint=eastwest;" vertex="1" parent="PCpBJ8rn8Khq6dN7b7X3-18">
          <mxGeometry y="104" width="160" height="26" as="geometry" />
        </mxCell>
        <mxCell id="PCpBJ8rn8Khq6dN7b7X3-59" style="edgeStyle=orthogonalEdgeStyle;rounded=0;orthogonalLoop=1;jettySize=auto;html=1;entryX=0;entryY=0.5;entryDx=0;entryDy=0;" edge="1" parent="1" source="PCpBJ8rn8Khq6dN7b7X3-25" target="PCpBJ8rn8Khq6dN7b7X3-55">
          <mxGeometry relative="1" as="geometry" />
        </mxCell>
        <mxCell id="PCpBJ8rn8Khq6dN7b7X3-60" value="0-n" style="edgeLabel;html=1;align=center;verticalAlign=middle;resizable=0;points=[];" vertex="1" connectable="0" parent="PCpBJ8rn8Khq6dN7b7X3-59">
          <mxGeometry x="-0.42" y="-2" relative="1" as="geometry">
            <mxPoint as="offset" />
          </mxGeometry>
        </mxCell>
        <mxCell id="PCpBJ8rn8Khq6dN7b7X3-25" value="SurveyAnswer" style="swimlane;html=1;fontStyle=1;align=center;verticalAlign=top;childLayout=stackLayout;horizontal=1;startSize=26;horizontalStack=0;resizeParent=1;resizeLast=0;collapsible=1;marginBottom=0;swimlaneFillColor=#ffffff;rounded=1;shadow=0;comic=0;labelBackgroundColor=none;strokeWidth=1;fillColor=#ffe6cc;fontFamily=Verdana;fontSize=12;strokeColor=#d79b00;" vertex="1" parent="1">
          <mxGeometry x="660" y="420" width="160" height="234" as="geometry" />
        </mxCell>
        <mxCell id="PCpBJ8rn8Khq6dN7b7X3-26" value="+ name: varchar(200)" style="text;html=1;strokeColor=none;fillColor=none;align=left;verticalAlign=top;spacingLeft=4;spacingRight=4;whiteSpace=wrap;overflow=hidden;rotatable=0;points=[[0,0.5],[1,0.5]];portConstraint=eastwest;" vertex="1" parent="PCpBJ8rn8Khq6dN7b7X3-25">
          <mxGeometry y="26" width="160" height="26" as="geometry" />
        </mxCell>
        <mxCell id="PCpBJ8rn8Khq6dN7b7X3-27" value="+ description: text" style="text;html=1;strokeColor=none;fillColor=none;align=left;verticalAlign=top;spacingLeft=4;spacingRight=4;whiteSpace=wrap;overflow=hidden;rotatable=0;points=[[0,0.5],[1,0.5]];portConstraint=eastwest;" vertex="1" parent="PCpBJ8rn8Khq6dN7b7X3-25">
          <mxGeometry y="52" width="160" height="26" as="geometry" />
        </mxCell>
        <mxCell id="PCpBJ8rn8Khq6dN7b7X3-28" value="+ creation_date: date" style="text;html=1;strokeColor=none;fillColor=none;align=left;verticalAlign=top;spacingLeft=4;spacingRight=4;whiteSpace=wrap;overflow=hidden;rotatable=0;points=[[0,0.5],[1,0.5]];portConstraint=eastwest;" vertex="1" parent="PCpBJ8rn8Khq6dN7b7X3-25">
          <mxGeometry y="78" width="160" height="26" as="geometry" />
        </mxCell>
        <mxCell id="PCpBJ8rn8Khq6dN7b7X3-29" value="SurveyObject" style="swimlane;html=1;fontStyle=1;align=center;verticalAlign=top;childLayout=stackLayout;horizontal=1;startSize=26;horizontalStack=0;resizeParent=1;resizeLast=0;collapsible=1;marginBottom=0;swimlaneFillColor=#ffffff;rounded=1;shadow=0;comic=0;labelBackgroundColor=none;strokeWidth=1;fillColor=#ffe6cc;fontFamily=Verdana;fontSize=12;strokeColor=#d79b00;" vertex="1" parent="1">
          <mxGeometry x="920" y="120" width="160" height="234" as="geometry" />
        </mxCell>
        <mxCell id="PCpBJ8rn8Khq6dN7b7X3-30" value="+ name: varchar(200)" style="text;html=1;strokeColor=none;fillColor=none;align=left;verticalAlign=top;spacingLeft=4;spacingRight=4;whiteSpace=wrap;overflow=hidden;rotatable=0;points=[[0,0.5],[1,0.5]];portConstraint=eastwest;" vertex="1" parent="PCpBJ8rn8Khq6dN7b7X3-29">
          <mxGeometry y="26" width="160" height="26" as="geometry" />
        </mxCell>
        <mxCell id="PCpBJ8rn8Khq6dN7b7X3-31" value="+ description: text" style="text;html=1;strokeColor=none;fillColor=none;align=left;verticalAlign=top;spacingLeft=4;spacingRight=4;whiteSpace=wrap;overflow=hidden;rotatable=0;points=[[0,0.5],[1,0.5]];portConstraint=eastwest;" vertex="1" parent="PCpBJ8rn8Khq6dN7b7X3-29">
          <mxGeometry y="52" width="160" height="26" as="geometry" />
        </mxCell>
        <mxCell id="PCpBJ8rn8Khq6dN7b7X3-32" value="+ creation_date: date" style="text;html=1;strokeColor=none;fillColor=none;align=left;verticalAlign=top;spacingLeft=4;spacingRight=4;whiteSpace=wrap;overflow=hidden;rotatable=0;points=[[0,0.5],[1,0.5]];portConstraint=eastwest;" vertex="1" parent="PCpBJ8rn8Khq6dN7b7X3-29">
          <mxGeometry y="78" width="160" height="26" as="geometry" />
        </mxCell>
        <mxCell id="PCpBJ8rn8Khq6dN7b7X3-53" value="+ survey_id: int" style="text;html=1;strokeColor=none;fillColor=none;align=left;verticalAlign=top;spacingLeft=4;spacingRight=4;whiteSpace=wrap;overflow=hidden;rotatable=0;points=[[0,0.5],[1,0.5]];portConstraint=eastwest;" vertex="1" parent="PCpBJ8rn8Khq6dN7b7X3-29">
          <mxGeometry y="104" width="160" height="26" as="geometry" />
        </mxCell>
        <mxCell id="PCpBJ8rn8Khq6dN7b7X3-35" value="User" style="swimlane;html=1;fontStyle=1;align=center;verticalAlign=top;childLayout=stackLayout;horizontal=1;startSize=26;horizontalStack=0;resizeParent=1;resizeLast=0;collapsible=1;marginBottom=0;swimlaneFillColor=#ffffff;rounded=1;shadow=0;comic=0;labelBackgroundColor=none;strokeWidth=1;fillColor=#f5f5f5;fontFamily=Verdana;fontSize=12;fontColor=#333333;strokeColor=#666666;" vertex="1" parent="1">
          <mxGeometry x="160" y="120" width="160" height="234" as="geometry" />
        </mxCell>
        <mxCell id="PCpBJ8rn8Khq6dN7b7X3-36" value="+ username: varchar(20)&amp;nbsp;" style="text;html=1;strokeColor=none;fillColor=none;align=left;verticalAlign=top;spacingLeft=4;spacingRight=4;whiteSpace=wrap;overflow=hidden;rotatable=0;points=[[0,0.5],[1,0.5]];portConstraint=eastwest;" vertex="1" parent="PCpBJ8rn8Khq6dN7b7X3-35">
          <mxGeometry y="26" width="160" height="26" as="geometry" />
        </mxCell>
        <mxCell id="PCpBJ8rn8Khq6dN7b7X3-37" value="+ name: varchar(200)" style="text;html=1;strokeColor=none;fillColor=none;align=left;verticalAlign=top;spacingLeft=4;spacingRight=4;whiteSpace=wrap;overflow=hidden;rotatable=0;points=[[0,0.5],[1,0.5]];portConstraint=eastwest;" vertex="1" parent="PCpBJ8rn8Khq6dN7b7X3-35">
          <mxGeometry y="52" width="160" height="26" as="geometry" />
        </mxCell>
        <mxCell id="PCpBJ8rn8Khq6dN7b7X3-38" value="+ first_name: varchar(200)" style="text;html=1;strokeColor=none;fillColor=none;align=left;verticalAlign=top;spacingLeft=4;spacingRight=4;whiteSpace=wrap;overflow=hidden;rotatable=0;points=[[0,0.5],[1,0.5]];portConstraint=eastwest;" vertex="1" parent="PCpBJ8rn8Khq6dN7b7X3-35">
          <mxGeometry y="78" width="160" height="26" as="geometry" />
        </mxCell>
        <mxCell id="PCpBJ8rn8Khq6dN7b7X3-40" value="+ creation_date: date" style="text;html=1;strokeColor=none;fillColor=none;align=left;verticalAlign=top;spacingLeft=4;spacingRight=4;whiteSpace=wrap;overflow=hidden;rotatable=0;points=[[0,0.5],[1,0.5]];portConstraint=eastwest;" vertex="1" parent="PCpBJ8rn8Khq6dN7b7X3-35">
          <mxGeometry y="104" width="160" height="26" as="geometry" />
        </mxCell>
        <mxCell id="PCpBJ8rn8Khq6dN7b7X3-41" value="+ password: varchar&amp;nbsp;" style="text;html=1;strokeColor=none;fillColor=none;align=left;verticalAlign=top;spacingLeft=4;spacingRight=4;whiteSpace=wrap;overflow=hidden;rotatable=0;points=[[0,0.5],[1,0.5]];portConstraint=eastwest;" vertex="1" parent="PCpBJ8rn8Khq6dN7b7X3-35">
          <mxGeometry y="130" width="160" height="26" as="geometry" />
        </mxCell>
        <mxCell id="PCpBJ8rn8Khq6dN7b7X3-42" value="+ email: varchar" style="text;html=1;strokeColor=none;fillColor=none;align=left;verticalAlign=top;spacingLeft=4;spacingRight=4;whiteSpace=wrap;overflow=hidden;rotatable=0;points=[[0,0.5],[1,0.5]];portConstraint=eastwest;" vertex="1" parent="PCpBJ8rn8Khq6dN7b7X3-35">
          <mxGeometry y="156" width="160" height="26" as="geometry" />
        </mxCell>
        <mxCell id="PCpBJ8rn8Khq6dN7b7X3-55" value="Answer" style="swimlane;html=1;fontStyle=1;align=center;verticalAlign=top;childLayout=stackLayout;horizontal=1;startSize=26;horizontalStack=0;resizeParent=1;resizeLast=0;collapsible=1;marginBottom=0;swimlaneFillColor=#ffffff;rounded=1;shadow=0;comic=0;labelBackgroundColor=none;strokeWidth=1;fillColor=none;fontFamily=Verdana;fontSize=12" vertex="1" parent="1">
          <mxGeometry x="920" y="420" width="160" height="234" as="geometry" />
        </mxCell>
        <mxCell id="PCpBJ8rn8Khq6dN7b7X3-56" value="+ id : int" style="text;html=1;strokeColor=#d79b00;fillColor=#ffe6cc;align=left;verticalAlign=top;spacingLeft=4;spacingRight=4;whiteSpace=wrap;overflow=hidden;rotatable=0;points=[[0,0.5],[1,0.5]];portConstraint=eastwest;" vertex="1" parent="PCpBJ8rn8Khq6dN7b7X3-55">
          <mxGeometry y="26" width="160" height="26" as="geometry" />
        </mxCell>
        <mxCell id="PCpBJ8rn8Khq6dN7b7X3-57" value="+ survey_object_id: int" style="text;html=1;strokeColor=none;fillColor=none;align=left;verticalAlign=top;spacingLeft=4;spacingRight=4;whiteSpace=wrap;overflow=hidden;rotatable=0;points=[[0,0.5],[1,0.5]];portConstraint=eastwest;" vertex="1" parent="PCpBJ8rn8Khq6dN7b7X3-55">
          <mxGeometry y="52" width="160" height="26" as="geometry" />
        </mxCell>
        <mxCell id="PCpBJ8rn8Khq6dN7b7X3-61" value="+ survey_answer_id: int" style="text;html=1;strokeColor=none;fillColor=none;align=left;verticalAlign=top;spacingLeft=4;spacingRight=4;whiteSpace=wrap;overflow=hidden;rotatable=0;points=[[0,0.5],[1,0.5]];portConstraint=eastwest;" vertex="1" parent="PCpBJ8rn8Khq6dN7b7X3-55">
          <mxGeometry y="78" width="160" height="26" as="geometry" />
        </mxCell>
        <mxCell id="PCpBJ8rn8Khq6dN7b7X3-58" value="+ value: text" style="text;html=1;strokeColor=none;fillColor=none;align=left;verticalAlign=top;spacingLeft=4;spacingRight=4;whiteSpace=wrap;overflow=hidden;rotatable=0;points=[[0,0.5],[1,0.5]];portConstraint=eastwest;" vertex="1" parent="PCpBJ8rn8Khq6dN7b7X3-55">
          <mxGeometry y="104" width="160" height="26" as="geometry" />
        </mxCell>
        <mxCell id="PCpBJ8rn8Khq6dN7b7X3-62" value="DB version 1.0" style="text;html=1;align=center;verticalAlign=middle;whiteSpace=wrap;rounded=0;" vertex="1" parent="1">
          <mxGeometry x="460" y="50" width="140" height="30" as="geometry" />
        </mxCell>
      </root>
    </mxGraphModel>
  </diagram>
</mxfile>
